<svg xmlns="http://www.w3.org/2000/svg" viewBox="0 0 600 350" width="100%" height="100%">
  <defs>
    <linearGradient id="pGrad" x1="0%" y1="0%" x2="100%" y2="100%">
      <stop offset="0%" stop-color="#022c22"/>
      <stop offset="100%" stop-color="#064e3b"/>
    </linearGradient>
  </defs>
  <rect width="600" height="350" fill="url(#pGrad)"/>
  
  <!-- Browser Frame -->
  <rect x="40" y="30" width="520" height="290" rx="10" fill="#042f2e" stroke="#059669" stroke-width="1.5"/>
  <rect x="40" y="30" width="520" height="35" rx="10" fill="#022c22"/>
  <circle cx="65" cy="47" r="5" fill="#ef4444"/>
  <circle cx="82" cy="47" r="5" fill="#f59e0b"/>
  <circle cx="99" cy="47" r="5" fill="#10b981"/>
  <text x="300" y="52" fill="#6ee7b7" font-family="sans-serif" font-size="12" text-anchor="middle">Responsive Portfolio Web Application</text>

  <!-- Hero wireframe inside preview -->
  <rect x="70" y="85" width="230" height="15" rx="4" fill="#34d399"/>
  <rect x="70" y="110" width="180" height="10" rx="3" fill="#6ee7b7" fill-opacity="0.6"/>
  <rect x="70" y="130" width="100" height="28" rx="6" fill="#10b981"/>
  <rect x="180" y="130" width="100" height="28" rx="6" fill="#134e4a" stroke="#10b981"/>

  <!-- Mini avatar in mockup -->
  <circle cx="450" cy="120" r="45" fill="#10b981" fill-opacity="0.3" stroke="#34d399" stroke-width="2"/>
  <circle cx="450" cy="110" r="18" fill="#34d399"/>
  <path d="M 425,145 Q 450,130 475,145" fill="#34d399"/>

  <!-- Mini cards in mockup -->
  <rect x="70" y="180" width="140" height="110" rx="8" fill="#064e3b" stroke="#047857"/>
  <rect x="85" y="195" width="40" height="10" rx="3" fill="#34d399"/>
  <rect x="85" y="215" width="110" height="6" rx="2" fill="#99f6e4"/>
  <rect x="85" y="228" width="90" height="6" rx="2" fill="#99f6e4"/>
  <rect x="85" y="255" width="60" height="18" rx="4" fill="#059669"/>

  <rect x="230" y="180" width="140" height="110" rx="8" fill="#064e3b" stroke="#047857"/>
  <rect x="245" y="195" width="50" height="10" rx="3" fill="#34d399"/>
  <rect x="245" y="215" width="110" height="6" rx="2" fill="#99f6e4"/>
  <rect x="245" y="228" width="90" height="6" rx="2" fill="#99f6e4"/>
  <rect x="245" y="255" width="60" height="18" rx="4" fill="#059669"/>

  <rect x="390" y="180" width="140" height="110" rx="8" fill="#064e3b" stroke="#047857"/>
  <rect x="405" y="195" width="45" height="10" rx="3" fill="#34d399"/>
  <rect x="405" y="215" width="110" height="6" rx="2" fill="#99f6e4"/>
  <rect x="405" y="228" width="90" height="6" rx="2" fill="#99f6e4"/>
  <rect x="405" y="255" width="60" height="18" rx="4" fill="#059669"/>
</svg>
